<svg width="434" height="327" viewBox="0 0 434 327" fill="none" xmlns="http://www.w3.org/2000/svg">
<path d="M249.29 283.018C195.928 283.018 152.67 279.488 152.67 275.133C152.67 270.778 195.928 267.247 249.29 267.247C302.651 267.247 345.909 270.778 345.909 275.133C345.909 279.488 302.651 283.018 249.29 283.018Z" fill="#E6E7E8"/>
<path d="M88.0912 201.105H156.793V257.062H88.0912V201.105Z" fill="white"/>
<path d="M88.0911 257.616H156.793C156.937 257.616 157.075 257.559 157.177 257.457C157.279 257.355 157.336 257.217 157.336 257.073V201.105C157.336 200.961 157.279 200.823 157.177 200.722C157.075 200.62 156.937 200.563 156.793 200.563H88.0911C87.9481 200.565 87.8118 200.624 87.7106 200.725C87.6095 200.826 87.5514 200.962 87.5486 201.105V257.073C87.5514 257.216 87.6095 257.353 87.7106 257.454C87.8118 257.555 87.9481 257.613 88.0911 257.616ZM156.251 256.531H88.6336V201.647H156.24L156.251 256.531Z" fill="#D1D3D4"/>
<path d="M88.0911 208.839H156.793C156.937 208.839 157.075 208.782 157.177 208.68C157.279 208.578 157.336 208.44 157.336 208.296C157.336 208.153 157.279 208.015 157.177 207.913C157.075 207.811 156.937 207.754 156.793 207.754H88.0911C87.9473 207.754 87.8093 207.811 87.7076 207.913C87.6058 208.015 87.5486 208.153 87.5486 208.296C87.5514 208.439 87.6095 208.576 87.7106 208.677C87.8118 208.778 87.9481 208.836 88.0911 208.839Z" fill="#D1D3D4"/>
<path d="M277.391 96.555C278.873 96.6546 280.351 96.3177 281.643 95.5861C282.936 94.8545 283.985 93.7602 284.662 92.4386C285.338 91.117 285.612 89.6262 285.45 88.1504C285.288 86.6747 284.697 85.2789 283.749 84.1357C287.894 82.2267 290.086 77.324 289.782 72.7793C289.478 68.2346 287.08 64.102 284.086 60.6094C281.623 57.7568 278.53 55.1862 274.831 54.4811C274.13 54.4114 273.447 54.2205 272.812 53.9171C272.313 53.5658 271.879 53.1288 271.532 52.6264C268.83 49.1772 265.5 46.01 261.333 44.6216C257.167 43.2332 252.067 44.025 249.279 47.42C247.885 46.2103 246.156 45.4523 244.322 45.2461C242.488 45.0399 240.634 45.3954 239.007 46.2655C237.379 47.1355 236.054 48.4792 235.207 50.1186C234.359 51.758 234.03 53.6159 234.262 55.4465C231.327 55.8797 228.574 57.1357 226.324 59.0688C224.073 61.002 222.417 63.5332 221.546 66.369C219.995 72.0743 222.631 78.7775 227.893 81.4782C228.501 81.7928 229.228 82.205 229.206 82.8775C229.146 83.2833 228.965 83.6615 228.685 83.9621C226.993 86.3809 227.839 89.8843 229.77 92.0754C231.702 94.2664 234.588 95.4269 237.365 96.5333C236.748 97.1526 236.336 97.9474 236.186 98.8092C236.037 99.6711 236.157 100.558 236.53 101.349C237.335 102.933 238.588 104.245 240.132 105.124C246.165 109.018 253.63 107.803 260.389 107.944C266.628 108.074 272.823 104.093 276.957 99.5812C277.76 98.7243 278.4 97.1624 277.391 96.555Z" fill="white"/>
<path d="M252.914 108.562C253.999 108.562 255.084 108.562 256.082 108.562C257.492 108.562 258.968 108.497 260.357 108.562C266.02 108.66 272.292 105.482 277.348 100.026C277.704 99.6692 277.983 99.2439 278.17 98.7759C278.356 98.308 278.446 97.807 278.433 97.3034C278.439 97.2639 278.439 97.2236 278.433 97.1841C279.893 97.1139 281.308 96.6494 282.526 95.84C283.744 95.0305 284.719 93.9063 285.349 92.5869C285.979 91.2675 286.24 89.8021 286.103 88.3465C285.967 86.8909 285.438 85.4994 284.574 84.3201C288.317 82.2592 290.65 77.606 290.324 72.7468C290.053 68.5925 288.089 64.3949 284.498 60.2515C281.373 56.6505 278.248 54.5896 274.928 53.9497L274.559 53.8846C274.037 53.8641 273.529 53.7122 273.081 53.4429C272.634 53.1737 272.261 52.7958 271.999 52.3444C268.592 48.0057 265.174 45.3375 261.507 44.1118C256.982 42.6042 252.024 43.6563 249.214 46.6608C247.735 45.5193 245.957 44.8307 244.094 44.6784C242.232 44.526 240.366 44.9164 238.721 45.8023C237.076 46.6882 235.723 48.0316 234.826 49.67C233.929 51.3085 233.526 53.1717 233.666 55.0343C230.734 55.5639 228.004 56.8878 225.773 58.8616C223.543 60.8354 221.896 63.3834 221.014 66.228C219.365 72.2912 222.284 79.2439 227.644 81.9663C228.186 82.2375 228.675 82.5412 228.664 82.8666C228.61 83.0917 228.502 83.3002 228.349 83.474L228.251 83.615C226.32 86.3484 227.416 90.1772 229.423 92.3899C231.409 94.3381 233.803 95.8201 236.432 96.7285C235.957 97.4392 235.67 98.2587 235.598 99.1105C235.526 99.9622 235.671 100.818 236.02 101.599C236.85 103.271 238.161 104.657 239.785 105.579C243.81 108.182 248.367 108.562 252.914 108.562ZM259.152 107.391C258.122 107.391 257.08 107.391 256.06 107.391C250.635 107.499 245.047 107.618 240.414 104.625C238.954 103.812 237.772 102.58 237.018 101.089C236.682 100.398 236.569 99.6193 236.695 98.8612C236.821 98.1031 237.181 97.4031 237.724 96.8587C237.795 96.7984 237.849 96.7208 237.881 96.6334C237.913 96.546 237.923 96.4517 237.908 96.3597C237.893 96.2664 237.854 96.1784 237.795 96.1044C237.736 96.0303 237.659 95.9726 237.572 95.9367C235.033 94.9171 232.147 93.7674 230.226 91.5981C228.501 89.6999 227.535 86.446 229.141 84.1682L229.239 84.0489C229.535 83.708 229.717 83.2833 229.76 82.8341C229.76 81.7494 228.729 81.2288 228.154 80.9359C223.228 78.3978 220.559 72.0417 222.078 66.4449C222.936 63.7248 224.543 61.3014 226.716 59.4522C228.888 57.6029 231.537 56.4027 234.36 55.9888C234.5 55.9673 234.627 55.8917 234.712 55.7781C234.797 55.6646 234.834 55.5221 234.816 55.3814C234.603 53.6631 234.914 51.9206 235.709 50.3822C236.503 48.8438 237.745 47.5814 239.27 46.7606C240.795 45.9397 242.532 45.5986 244.254 45.7821C245.976 45.9656 247.603 46.6651 248.921 47.7888C248.975 47.8368 249.039 47.873 249.108 47.8954C249.177 47.9178 249.25 47.9258 249.322 47.919C249.394 47.9136 249.464 47.8935 249.527 47.8599C249.591 47.8263 249.646 47.7799 249.691 47.7237C252.132 44.7518 256.852 43.6671 261.149 45.1097C264.61 46.2594 267.865 48.8192 271.098 52.9301C271.481 53.4865 271.963 53.9681 272.519 54.351C273.092 54.6558 273.719 54.8473 274.364 54.915L274.711 54.9801C277.782 55.5766 280.711 57.5182 283.673 60.924C287.102 64.883 288.968 68.8745 289.228 72.7793C289.543 77.465 287.2 81.9121 283.511 83.6259C283.436 83.6607 283.369 83.712 283.317 83.7758C283.264 83.8396 283.227 83.9144 283.207 83.9947C283.189 84.0763 283.191 84.1609 283.212 84.2418C283.232 84.3227 283.272 84.3977 283.326 84.4611C284.221 85.518 284.783 86.816 284.941 88.1915C285.1 89.5671 284.847 90.9588 284.216 92.1914C283.585 93.424 282.604 94.4424 281.395 95.1185C280.186 95.7946 278.805 96.0982 277.424 95.991C277.3 95.9784 277.176 96.0094 277.073 96.0788C276.97 96.1481 276.894 96.2514 276.859 96.3706C276.823 96.487 276.826 96.6124 276.869 96.7266C276.913 96.8408 276.993 96.937 277.098 96.9997C277.165 97.0368 277.222 97.0899 277.264 97.1542C277.305 97.2186 277.33 97.2921 277.337 97.3685C277.318 98.0607 277.03 98.7184 276.534 99.2015C271.738 104.43 265.684 107.488 260.378 107.38L259.152 107.391Z" fill="#231F20"/>
<path d="M199.9 255.403C197.416 255.403 178.895 257.41 170.226 261.716C161.556 266.022 159.679 266.358 161.437 272.172C163.195 277.986 178.461 279.417 190.081 277.226C197.566 275.688 204.785 273.064 211.51 269.438L199.9 255.403Z" fill="white"/>
<path d="M179.123 278.777C182.83 278.763 186.528 278.4 190.168 277.693C197.703 276.143 204.973 273.505 211.749 269.861C211.812 269.824 211.866 269.773 211.909 269.714C211.952 269.654 211.982 269.586 211.998 269.514C212.011 269.444 212.008 269.371 211.989 269.302C211.97 269.232 211.936 269.168 211.89 269.113L200.28 255.078C200.237 255.02 200.182 254.973 200.118 254.941C200.054 254.909 199.983 254.893 199.911 254.893H199.803C196.776 254.893 178.689 256.954 170.009 261.26L168.056 262.225C161.101 265.631 159.224 266.564 160.96 272.313C162.056 275.957 169.195 278.777 179.123 278.777ZM210.74 269.287C204.206 272.735 197.219 275.243 189.983 276.738C178.32 278.907 163.52 277.367 161.904 272.031C160.417 267.085 161.491 266.553 168.49 263.126L170.443 262.16C178.721 258.05 196.428 255.956 199.673 255.891L210.74 269.287Z" fill="#231F20"/>
<path d="M197.416 255.349C195.778 255.75 194.352 256.755 193.424 258.164C192.496 259.572 192.135 261.278 192.414 262.941C193.228 269.113 206.28 269.373 207.029 269.449C207.778 269.525 197.416 255.349 197.416 255.349Z" fill="white"/>
<path d="M207.029 269.796C207.126 269.793 207.22 269.766 207.304 269.717C207.387 269.667 207.457 269.598 207.506 269.514C207.669 269.189 207.929 268.69 197.817 255.013C197.759 254.933 197.678 254.873 197.585 254.84C197.492 254.807 197.392 254.803 197.296 254.828C197.242 254.828 191.058 256.379 191.871 262.92C192.696 269.2 204.588 269.753 206.964 269.796H207.029ZM197.264 255.88C200.443 260.219 205.174 266.727 206.356 268.788C203.383 268.647 193.607 267.811 192.946 262.789C192.691 261.32 192.985 259.808 193.774 258.542C194.562 257.276 195.789 256.344 197.22 255.924L197.264 255.88Z" fill="#231F20"/>
<path d="M294.154 269.482C294.534 269.677 298.082 274.287 313.554 276.131C329.026 277.975 334.766 281.305 338.216 273.18C341.666 265.056 339.301 259.807 331.706 257.486C324.111 255.164 303.073 253.245 298.95 257.128C294.827 261.011 294.154 269.482 294.154 269.482Z" fill="white"/>
<path d="M330.578 278.886C334.408 278.886 336.871 277.606 338.672 273.376C340.473 269.146 340.744 265.512 339.431 262.703C338.216 260.1 335.656 258.18 331.836 257.019C324.697 254.85 303.008 252.615 298.603 256.77C294.382 260.74 293.71 269.091 293.677 269.438C293.672 269.53 293.691 269.622 293.733 269.704C293.775 269.786 293.838 269.855 293.916 269.905L294.068 270.035C298.527 274.092 307.088 275.86 313.511 276.619C316.842 277.02 319.706 277.487 322.191 277.899C324.958 278.434 327.762 278.764 330.578 278.886ZM310.549 255.392C317.981 255.392 326.986 256.574 331.522 257.963C335.081 259.047 337.446 260.783 338.531 263.126C339.724 265.664 339.464 268.983 337.761 272.985C335.211 279.005 331.446 278.409 322.375 276.923C319.836 276.51 316.95 276.044 313.608 275.643C307.337 274.894 298.972 273.18 294.708 269.297C294.86 267.877 295.793 260.859 299.297 257.518C300.86 255.978 305.319 255.392 310.549 255.392Z" fill="#231F20"/>
<path d="M289.218 266.163C289.218 266.163 296.238 272.02 300.914 271.326C305.59 270.632 312.057 268.072 309.453 263.028C306.849 257.984 290.086 254.947 290.086 254.947L289.218 266.163Z" fill="white"/>
<path d="M300.111 271.879C300.405 271.879 300.699 271.857 300.99 271.814C304.494 271.293 308.726 269.796 310.082 267.139C310.417 266.458 310.576 265.704 310.543 264.946C310.511 264.188 310.289 263.45 309.898 262.8C307.207 257.572 290.867 254.589 290.172 254.459C290.104 254.448 290.034 254.45 289.967 254.467C289.9 254.484 289.837 254.514 289.782 254.557C289.727 254.6 289.681 254.655 289.648 254.716C289.614 254.778 289.593 254.845 289.586 254.915L288.719 266.119C288.713 266.199 288.725 266.278 288.755 266.351C288.785 266.425 288.832 266.49 288.892 266.542C289.174 266.77 295.348 271.879 300.111 271.879ZM290.53 255.544C293.406 256.108 306.805 258.961 308.975 263.256C309.296 263.766 309.481 264.349 309.515 264.95C309.55 265.551 309.431 266.151 309.171 266.694C307.977 269.005 304.071 270.35 300.805 270.838C296.823 271.434 290.845 266.857 289.695 265.946L290.53 255.544Z" fill="#231F20"/>
<path d="M204.891 216.963C204.891 216.963 212.291 245.815 239.297 251.325C266.302 256.835 280.277 255.381 289.847 237.159C299.417 218.937 293.102 207.787 293.102 207.787L207.875 206.094L204.891 216.963Z" fill="#231F20"/>
<path d="M261.572 254.698C274.592 254.698 283.63 250.164 290.335 237.409C299.927 219.132 293.818 207.982 293.59 207.515C293.543 207.433 293.475 207.365 293.393 207.318C293.311 207.27 293.218 207.245 293.124 207.244L207.897 205.552C207.774 205.546 207.653 205.583 207.554 205.656C207.455 205.729 207.384 205.834 207.354 205.953L204.403 216.8C204.381 216.893 204.381 216.989 204.403 217.082C204.479 217.375 212.193 246.368 239.232 251.845C247.771 253.613 255.159 254.698 261.572 254.698ZM292.744 208.318C293.59 210.108 297.865 220.716 289.369 236.91C279.659 255.349 265.499 256.13 239.459 250.793C214.038 245.609 206.107 219.089 205.51 216.963L208.32 206.648L292.744 208.318Z" fill="#231F20"/>
<path d="M299.46 217.223C299.46 217.223 313.424 172.101 311.59 143.824C309.757 115.547 299.243 114.539 284.899 112.944C278.53 112.228 244.602 107.206 231.897 122.153C219.192 137.099 196.83 207.103 196.83 207.103L299.46 217.223Z" fill="#2E64EF"/>
<path d="M249.062 113.02L251.232 128.118C251.232 128.118 255.984 135.917 265.499 131.969C275.015 128.021 275.199 120.743 275.199 120.743L270.686 92.8455C270.686 92.8455 260.65 83.8428 256.429 66.6401C256.429 66.6401 248.02 81.3047 235.814 84.6021C235.814 84.6021 236.628 96.7828 238.808 104.332C240.979 111.632 248.91 112.933 249.062 113.02Z" fill="white"/>
<path d="M260.4 133.618C262.245 133.595 264.068 133.205 265.76 132.468C275.525 128.433 275.785 121.068 275.796 120.754L271.25 92.7587C271.228 92.6346 271.167 92.5207 271.076 92.4333C270.979 92.3465 261.116 83.3439 256.971 66.51C256.942 66.4066 256.883 66.3139 256.802 66.2428C256.721 66.1717 256.622 66.1251 256.516 66.1087C256.41 66.0937 256.302 66.1104 256.205 66.1567C256.108 66.2031 256.028 66.2769 255.973 66.369C255.886 66.5208 247.521 80.8817 235.705 84.0706C235.583 84.1031 235.476 84.1772 235.403 84.2802C235.33 84.3832 235.295 84.5086 235.304 84.6346C235.304 84.7539 236.15 96.9671 238.32 104.484C240.11 110.677 245.915 112.803 248.563 113.454L250.733 128.194C250.743 128.266 250.765 128.336 250.798 128.4C251.867 129.972 253.296 131.265 254.966 132.172C256.637 133.08 258.5 133.575 260.4 133.618ZM270.165 93.1058L274.657 120.83C274.657 121.003 274.331 127.706 265.282 131.47C256.83 134.974 252.263 128.737 251.742 127.923L249.572 112.944C249.562 112.862 249.532 112.783 249.484 112.715C249.437 112.647 249.374 112.592 249.3 112.554C249.2 112.496 249.09 112.459 248.975 112.445C246.642 111.892 241.022 109.972 239.351 104.18C237.441 97.5746 236.573 87.2486 236.411 85.0034C246.61 82.0097 254.009 71.4994 256.223 68.0177C260.346 83.2896 268.993 91.9126 270.165 93.1058Z" fill="#231F20"/>
<path d="M264.838 93.2685C264.959 91.8573 265.539 90.5245 266.487 89.4722C267.409 88.5268 268.488 87.7487 269.677 87.1727C270.293 86.7917 270.986 86.551 271.706 86.4677C272.215 86.4727 272.719 86.572 273.192 86.7605C274.347 87.1289 275.333 87.8984 275.97 88.9298C276.389 89.8049 276.587 90.7697 276.545 91.7391C276.588 92.7882 276.493 93.8384 276.263 94.8629C276.008 95.8858 275.551 96.8476 274.92 97.6918C274.288 98.536 273.494 99.2456 272.585 99.7791C271.675 100.312 270.668 100.659 269.623 100.798C268.578 100.937 267.515 100.867 266.498 100.59" fill="white"/>
<path d="M268.559 101.36C270.447 101.362 272.282 100.733 273.772 99.5737C275.262 98.4143 276.322 96.7907 276.784 94.9605C277.035 93.8952 277.137 92.8 277.087 91.7066C277.126 90.6501 276.906 89.6003 276.447 88.6478C275.756 87.5139 274.682 86.6639 273.42 86.2507C272.88 86.041 272.307 85.9307 271.727 85.9253C270.924 86.01 270.149 86.2731 269.46 86.6955C268.219 87.3008 267.092 88.1154 266.129 89.1034C265.1 90.2462 264.471 91.6932 264.339 93.2251C264.329 93.3684 264.376 93.5096 264.47 93.6189C264.563 93.7282 264.695 93.797 264.838 93.8108C264.98 93.8172 265.12 93.7693 265.229 93.6767C265.338 93.5841 265.407 93.4537 265.424 93.3119C265.53 92.0213 266.052 90.7999 266.91 89.8301C267.792 88.9347 268.824 88.2006 269.959 87.6608C270.5 87.314 271.112 87.0917 271.749 87.01C272.189 87.0137 272.623 87.102 273.029 87.2703C274.054 87.5866 274.937 88.2502 275.525 89.1468C275.893 89.9479 276.065 90.8257 276.024 91.7066C276.076 92.7087 275.985 93.7131 275.753 94.6894C275.514 95.6389 275.089 96.5314 274.502 97.3152C273.915 98.099 273.178 98.7583 272.334 99.2549C271.49 99.7514 270.556 100.075 269.586 100.208C268.615 100.34 267.628 100.278 266.682 100.026C266.544 99.9893 266.397 100.009 266.273 100.08C266.149 100.151 266.058 100.268 266.02 100.406C266.002 100.475 265.998 100.547 266.008 100.617C266.018 100.688 266.042 100.756 266.078 100.817C266.115 100.879 266.163 100.933 266.22 100.975C266.277 101.018 266.342 101.049 266.411 101.067C267.111 101.26 267.833 101.359 268.559 101.36Z" fill="#231F20"/>
<path d="M251.199 88.9624C251.199 88.9624 246.935 97.3685 248.335 98.5724C249.734 99.7764 253.098 98.4531 253.098 98.4531" fill="white"/>
<path d="M250.082 99.6246C251.196 99.5902 252.297 99.3664 253.337 98.9629C253.403 98.9366 253.463 98.8975 253.515 98.8478C253.566 98.7981 253.607 98.7389 253.635 98.6734C253.663 98.6079 253.678 98.5375 253.679 98.4662C253.68 98.3949 253.667 98.3241 253.64 98.2579C253.585 98.1259 253.481 98.0205 253.349 97.9638C253.218 97.9072 253.069 97.9037 252.935 97.9542C252.143 98.2579 249.68 98.9629 248.736 98.1603C248.161 97.683 249.593 93.4095 251.72 89.201C251.753 89.1379 251.774 89.0687 251.78 88.9976C251.786 88.9264 251.777 88.8548 251.755 88.787C251.733 88.7192 251.697 88.6565 251.65 88.6028C251.603 88.5491 251.546 88.5054 251.481 88.4743C251.353 88.4128 251.205 88.4033 251.07 88.4478C250.935 88.4922 250.821 88.5872 250.754 88.7129C249.42 91.3595 246.469 97.6505 248.02 98.9846C248.615 99.4261 249.342 99.6519 250.082 99.6246Z" fill="#231F20"/>
<path d="M256.496 87.0624C256.414 86.0593 256.929 85.1988 257.646 85.1404C258.362 85.082 259.01 85.8478 259.092 86.8509C259.173 87.8539 258.659 88.7144 257.942 88.7728C257.225 88.8312 256.578 88.0654 256.496 87.0624Z" fill="#231F20"/>
<path d="M243.054 88.9191C242.979 87.9155 243.5 87.0586 244.217 87.0052C244.934 86.9518 245.576 87.7221 245.651 88.7257C245.726 89.7293 245.205 90.5862 244.488 90.6396C243.771 90.693 243.129 89.9227 243.054 88.9191Z" fill="#231F20"/>
<path d="M252.306 106.349C253.965 106.379 255.607 106.006 257.091 105.265C259.684 103.909 261.344 101.317 262.028 97.5637C262.04 97.4932 262.038 97.4209 262.023 97.351C262.007 97.2811 261.978 97.215 261.936 97.1565C261.895 97.098 261.842 97.0483 261.782 97.0102C261.721 96.9721 261.653 96.9464 261.583 96.9346C261.442 96.9121 261.298 96.9446 261.181 97.0254C261.064 97.1063 260.982 97.2291 260.953 97.3685C260.346 100.774 258.87 103.106 256.613 104.299C252.056 106.686 245.644 103.8 245.579 103.768C245.448 103.709 245.299 103.705 245.165 103.756C245.031 103.806 244.922 103.908 244.863 104.039C244.832 104.104 244.815 104.174 244.812 104.245C244.809 104.317 244.821 104.388 244.846 104.455C244.872 104.522 244.91 104.583 244.96 104.634C245.009 104.686 245.068 104.727 245.134 104.755C247.4 105.742 249.835 106.283 252.306 106.349Z" fill="#231F20"/>
<path d="M249.062 113.02C249.062 113.02 258.827 113.823 263.861 109.853C263.861 109.853 259.575 123.411 250.57 123.368L249.062 113.02Z" fill="#231F20"/>
<path d="M250.635 123.91C259.901 123.91 264.219 110.58 264.404 110.016C264.436 109.904 264.432 109.786 264.393 109.677C264.354 109.568 264.282 109.474 264.187 109.408C264.095 109.337 263.983 109.298 263.867 109.298C263.751 109.298 263.638 109.337 263.546 109.408C258.697 113.194 249.225 112.467 249.127 112.456C249.046 112.45 248.965 112.463 248.89 112.493C248.814 112.522 248.747 112.568 248.691 112.628C248.636 112.687 248.595 112.758 248.571 112.835C248.547 112.912 248.54 112.994 248.552 113.074L250.06 123.433C250.083 123.568 250.154 123.69 250.259 123.778C250.365 123.865 250.498 123.912 250.635 123.91ZM262.787 111.22C261.409 114.615 257.503 122.478 251.058 122.815L249.724 113.606C251.807 113.693 258.23 113.758 262.765 111.22H262.787Z" fill="#231F20"/>
<path d="M295.652 115.461C315.692 112.966 334.505 198.014 323.569 206.094C306.512 218.709 254.454 201.485 254.454 201.485L259.662 179.043C259.662 179.043 297.236 180.833 297.919 173.121C298.603 165.409 276.925 129.257 279.963 123.986C283.001 118.715 295.652 115.461 295.652 115.461Z" fill="#2E64EF"/>
<path d="M225.68 179.672C225.8 179.676 225.916 179.634 226.007 179.556C226.097 179.477 226.155 179.368 226.168 179.249C228.751 161.114 234.414 130.743 236.248 128.965C236.337 128.871 236.387 128.747 236.386 128.618C236.386 128.489 236.335 128.365 236.246 128.272C236.156 128.18 236.033 128.125 235.904 128.121C235.775 128.117 235.65 128.162 235.554 128.249C233.199 130.537 227.145 165.376 225.192 179.108C225.173 179.239 225.207 179.372 225.287 179.478C225.366 179.583 225.484 179.653 225.615 179.672H225.68Z" fill="#231F20"/>
<path d="M244.852 222.581L279.442 212.895L215.915 200.953L181.531 215.357L244.852 222.581Z" fill="white"/>
<path d="M244.852 223.156C244.898 223.166 244.947 223.166 244.993 223.156L279.583 213.394C279.727 213.394 279.865 213.337 279.966 213.235C280.068 213.134 280.125 212.996 280.125 212.852C280.125 212.708 280.068 212.57 279.966 212.468C279.865 212.367 279.727 212.31 279.583 212.31L216.056 200.378C215.957 200.346 215.851 200.346 215.752 200.378L181.369 214.783C181.259 214.829 181.167 214.911 181.108 215.015C181.049 215.119 181.026 215.239 181.043 215.357C181.059 215.477 181.115 215.588 181.202 215.673C181.288 215.757 181.4 215.81 181.521 215.824L244.787 223.156H244.852ZM277.055 213.036L244.809 222.071L183.658 215.097L215.98 201.561L277.055 213.036Z" fill="#231F20"/>
<path d="M265.261 186.798C257.666 187.634 250.624 188.176 243.561 191.137C239.525 192.832 235.713 195.018 232.212 197.645C230.428 198.91 228.761 200.333 227.232 201.897C226.016 203.22 226.407 204.511 228.447 203.871C230.819 203.128 233.065 202.031 235.109 200.617C230.222 204.603 225.89 209.225 222.23 214.36C221.817 214.945 221.416 215.78 221.904 216.301C222.392 216.822 223.477 216.301 224.074 215.759L234.805 205.585C231.964 208.035 229.548 210.937 227.655 214.175C227.383 214.642 227.123 215.26 227.405 215.683C227.883 216.475 229.098 215.878 229.749 215.216C232.963 211.972 235.886 208.451 238.483 204.695L232.689 213.373C232.744 213.533 232.83 213.68 232.942 213.807C233.054 213.933 233.191 214.036 233.343 214.11C233.495 214.184 233.661 214.226 233.83 214.236C233.999 214.245 234.168 214.221 234.327 214.164C234.966 213.901 235.518 213.465 235.922 212.906L242.942 204.847L238.798 210.552C238.147 211.442 237.496 212.722 238.244 213.557C238.993 214.392 240.686 213.557 241.64 212.711C245.481 209.207 249.698 206.141 254.216 203.567C255.854 202.602 257.254 201.289 259.065 200.736C261.669 199.934 264.924 200.042 267.637 199.738" fill="white"/>
<path d="M222.425 217.039C223.15 216.957 223.825 216.627 224.335 216.106L227.807 212.852C227.579 213.21 227.351 213.579 227.145 213.937C226.925 214.219 226.786 214.556 226.742 214.911C226.698 215.266 226.751 215.626 226.895 215.954C226.992 216.121 227.128 216.263 227.29 216.369C227.452 216.474 227.636 216.54 227.828 216.561C228.239 216.556 228.643 216.466 229.017 216.296C229.391 216.126 229.725 215.88 229.998 215.574C230.714 214.858 231.409 214.132 232.092 213.405C232.088 213.445 232.088 213.485 232.092 213.524C232.134 213.725 232.217 213.915 232.336 214.081C232.456 214.248 232.61 214.387 232.787 214.49C233.021 214.63 233.281 214.72 233.552 214.756C233.823 214.791 234.098 214.771 234.36 214.696C235.09 214.41 235.723 213.92 236.183 213.286L237.463 211.821C237.303 212.175 237.247 212.566 237.301 212.95C237.355 213.334 237.516 213.695 237.767 213.991C237.923 214.166 238.113 214.307 238.326 214.406C238.539 214.504 238.769 214.559 239.004 214.566C240.137 214.442 241.186 213.91 241.955 213.069C245.758 209.584 249.944 206.542 254.433 204.001C254.986 203.676 255.518 203.307 256.038 202.916C256.986 202.177 258.044 201.592 259.174 201.181C261.066 200.702 263.006 200.44 264.957 200.4C265.89 200.346 266.802 200.292 267.659 200.205C267.789 200.189 267.908 200.121 267.99 200.018C268.071 199.914 268.108 199.782 268.093 199.652C268.086 199.587 268.067 199.525 268.036 199.468C268.005 199.412 267.963 199.362 267.912 199.321C267.862 199.281 267.804 199.251 267.742 199.233C267.679 199.215 267.614 199.21 267.55 199.218C266.704 199.305 265.814 199.359 264.903 199.413C262.871 199.452 260.85 199.725 258.881 200.226C257.658 200.673 256.509 201.302 255.474 202.092C254.975 202.45 254.465 202.797 253.933 203.112C249.383 205.696 245.136 208.782 241.271 212.31C240.685 212.906 239.926 213.304 239.101 213.448C239.001 213.445 238.902 213.421 238.81 213.378C238.719 213.335 238.637 213.274 238.57 213.199C237.984 212.559 238.787 211.312 239.156 210.802L243.3 205.107C243.339 205.058 243.368 205.001 243.384 204.94C243.401 204.879 243.405 204.816 243.397 204.753C243.389 204.691 243.369 204.63 243.337 204.576C243.306 204.521 243.264 204.473 243.214 204.435C243.122 204.346 243 204.295 242.872 204.295C242.744 204.295 242.621 204.346 242.53 204.435L235.499 212.494C235.156 212.974 234.687 213.349 234.143 213.579C234.015 213.615 233.88 213.625 233.748 213.608C233.616 213.591 233.488 213.548 233.373 213.481C233.304 213.445 233.244 213.393 233.199 213.329L238.852 204.836C238.925 204.728 238.953 204.596 238.928 204.468C238.904 204.339 238.83 204.226 238.722 204.153C238.614 204.08 238.481 204.052 238.353 204.076C238.225 204.101 238.112 204.175 238.038 204.283C235.453 208.013 232.548 211.511 229.358 214.739C229.005 215.127 228.523 215.373 228.002 215.433C227.959 215.432 227.917 215.419 227.881 215.397C227.845 215.374 227.815 215.341 227.796 215.303C227.676 215.119 227.796 214.772 228.045 214.294C229.351 212.06 230.914 209.985 232.7 208.112L235.12 205.812C235.198 205.719 235.239 205.601 235.237 205.479C235.234 205.358 235.187 205.242 235.104 205.152C235.021 205.063 234.909 205.007 234.788 204.995C234.667 204.983 234.546 205.015 234.447 205.086C233.59 205.823 232.776 206.593 231.995 207.407L223.705 215.271C223.383 215.637 222.941 215.875 222.458 215.943C222.414 215.945 222.37 215.936 222.33 215.917C222.291 215.898 222.256 215.87 222.23 215.835C221.98 215.574 222.23 214.989 222.588 214.511C226.221 209.414 230.52 204.825 235.369 200.866C235.458 200.782 235.513 200.668 235.523 200.546C235.533 200.424 235.498 200.302 235.424 200.205C235.35 200.107 235.243 200.039 235.123 200.015C235.003 199.991 234.878 200.013 234.772 200.075C232.777 201.463 230.582 202.538 228.262 203.264C227.503 203.502 227.101 203.405 227.025 203.264C226.949 203.123 227.025 202.645 227.557 202.081C229.063 200.537 230.708 199.135 232.472 197.894C235.939 195.295 239.714 193.134 243.713 191.462C250.082 188.805 256.451 188.122 263.243 187.395L265.358 187.156C265.423 187.15 265.485 187.13 265.542 187.099C265.598 187.068 265.648 187.026 265.689 186.976C265.729 186.925 265.759 186.867 265.777 186.805C265.795 186.743 265.8 186.678 265.792 186.614C265.786 186.55 265.766 186.488 265.735 186.431C265.704 186.374 265.662 186.324 265.612 186.284C265.561 186.243 265.503 186.214 265.441 186.196C265.379 186.178 265.314 186.173 265.25 186.18L263.08 186.408C256.255 187.146 249.821 187.84 243.322 190.551C239.248 192.238 235.4 194.424 231.865 197.059C230.051 198.349 228.359 199.801 226.808 201.398C226.027 202.244 225.789 203.166 226.179 203.784C226.407 204.131 227.015 204.652 228.544 204.175C229.427 203.905 230.293 203.583 231.138 203.209C227.669 206.454 224.532 210.037 221.774 213.904C221.025 214.989 220.928 215.867 221.481 216.475C221.6 216.605 221.743 216.71 221.904 216.783C222.064 216.855 222.238 216.895 222.414 216.898L222.425 217.039Z" fill="#231F20"/>
<path d="M181.531 215.357L165.701 173.002L230.356 174.281L244.852 222.581L181.531 215.357Z" fill="white"/>
<path d="M244.852 223.156C244.931 223.157 245.009 223.14 245.081 223.106C245.152 223.072 245.215 223.023 245.264 222.961C245.321 222.893 245.361 222.812 245.38 222.725C245.398 222.638 245.396 222.548 245.373 222.462L230.877 174.162C230.842 174.053 230.774 173.957 230.683 173.887C230.592 173.818 230.482 173.777 230.367 173.772L165.712 172.492C165.623 172.49 165.536 172.51 165.456 172.55C165.377 172.59 165.308 172.648 165.256 172.72C165.209 172.793 165.179 172.875 165.167 172.962C165.156 173.048 165.164 173.136 165.191 173.219L181.021 215.52C181.057 215.616 181.118 215.7 181.199 215.764C181.279 215.827 181.375 215.866 181.477 215.878L244.787 223.156H244.852ZM229.944 174.846L244.049 221.985L181.879 214.891L166.45 173.587L229.944 174.846Z" fill="#231F20"/>
<path d="M184.982 215.748C184.982 215.748 167.437 229.989 173.6 243.049C179.763 256.108 291.865 271.033 291.865 271.033L296.91 253.96C296.91 253.96 208.971 209.056 184.982 215.748Z" fill="#231F20"/>
<path d="M291.865 271.575C291.982 271.573 292.095 271.535 292.189 271.465C292.282 271.394 292.351 271.296 292.386 271.185L297.431 254.112C297.47 253.992 297.463 253.862 297.414 253.747C297.364 253.631 297.274 253.537 297.16 253.483C296.943 253.364 274.885 242.138 250.168 231.855C216.913 218.026 194.942 212.429 184.873 215.227C184.797 215.248 184.727 215.285 184.667 215.336C181.605 217.936 178.886 220.914 176.573 224.197C171.734 231.161 170.562 237.756 173.188 243.287C179.459 256.455 287.21 270.957 291.789 271.564L291.865 271.575ZM296.27 254.221L291.474 270.404C283.641 269.319 179.991 255.023 174.164 242.799C168.435 230.738 183.929 217.321 185.275 216.225C208.081 210.14 289.695 250.967 296.205 254.242L296.27 254.221Z" fill="#231F20"/>
<path d="M302.715 209.207C302.715 209.207 215.665 244.394 194.085 253.678L206.627 273.05C206.627 273.05 287.004 271.478 310.05 251.292C333.095 231.107 331.565 197.504 302.715 209.207Z" fill="#231F20"/>
<path d="M206.627 273.614C206.823 273.614 227.015 273.191 249.756 270.306C280.353 266.412 300.751 260.165 310.397 251.715C322.462 241.151 330.914 222.603 324.274 211.832C322.104 208.253 316.31 203.101 302.487 208.698C301.619 209.056 215.188 244.003 193.846 253.169C193.773 253.198 193.708 253.244 193.656 253.302C193.603 253.36 193.564 253.43 193.542 253.505C193.521 253.581 193.515 253.661 193.526 253.74C193.537 253.818 193.565 253.893 193.607 253.96L206.15 273.365C206.201 273.444 206.272 273.509 206.356 273.553C206.439 273.597 206.533 273.618 206.627 273.614ZM313.402 207.32C317.862 207.32 321.279 209.034 323.363 212.396C328.484 220.716 324.22 238.179 309.692 250.902C287.764 270.111 212.335 272.389 206.92 272.519L194.877 253.917C217.163 244.372 302.042 210.053 302.91 209.706C306.224 208.252 309.785 207.442 313.402 207.32Z" fill="#231F20"/>
<path d="M181.195 198.448C181.101 198.948 180.885 199.418 180.566 199.814L178.873 202.342C178.935 202.08 179.053 201.836 179.22 201.626C179.387 201.415 179.597 201.244 179.837 201.124C180.078 201.004 180.341 200.938 180.609 200.931C180.878 200.924 181.144 200.976 181.39 201.083C181.871 201.343 182.27 201.731 182.544 202.204C182.818 202.677 182.956 203.216 182.942 203.762C182.893 204.853 182.635 205.925 182.182 206.919C180.978 210.043 178.255 214.609 174.316 212.244C171.647 210.639 170.909 204.977 170.529 202.157C169.781 196.604 171.484 189.467 178.624 190.551C178.418 193.286 177.397 195.896 175.694 198.046C176.855 196.918 181.553 195.172 181.195 198.448Z" fill="white"/>
<path d="M176.497 213.394C176.933 213.397 177.366 213.324 177.777 213.177C180.349 212.299 181.954 208.991 182.681 207.092C183.155 206.039 183.424 204.905 183.474 203.752C183.491 203.11 183.326 202.477 182.998 201.926C182.669 201.375 182.191 200.928 181.618 200.639C181.352 200.518 181.064 200.455 180.772 200.454L181.011 200.096C181.381 199.63 181.627 199.078 181.727 198.491C181.813 198.06 181.753 197.613 181.557 197.22C181.36 196.827 181.038 196.511 180.642 196.322C179.529 195.978 178.328 196.067 177.278 196.571C178.321 194.75 178.943 192.719 179.101 190.627C179.108 190.502 179.069 190.379 178.991 190.281C178.913 190.183 178.801 190.117 178.678 190.096C177.592 189.858 176.465 189.888 175.393 190.183C174.321 190.478 173.337 191.029 172.526 191.788C169.976 194.304 169.553 198.838 170.02 202.255C170.443 205.379 171.202 210.986 174.045 212.7C174.78 213.158 175.63 213.399 176.497 213.394ZM180.707 201.463C180.882 201.461 181.055 201.494 181.217 201.561C181.612 201.782 181.938 202.107 182.16 202.501C182.382 202.895 182.491 203.343 182.475 203.795C182.433 204.823 182.189 205.832 181.759 206.767C181.217 208.155 179.719 211.485 177.419 212.266C176.945 212.418 176.441 212.459 175.949 212.385C175.456 212.312 174.986 212.126 174.576 211.843C172.135 210.379 171.397 204.869 171.039 202.222C170.595 198.968 170.953 194.738 173.209 192.46C173.85 191.858 174.62 191.41 175.461 191.153C176.302 190.895 177.191 190.834 178.059 190.974C177.78 193.443 176.814 195.784 175.271 197.732C175.192 197.829 175.153 197.954 175.163 198.079C175.173 198.204 175.231 198.321 175.325 198.404C175.418 198.491 175.54 198.54 175.667 198.54C175.794 198.54 175.916 198.491 176.009 198.404C176.736 197.688 179.133 196.669 180.208 197.189C180.446 197.298 180.75 197.547 180.674 198.393C180.579 198.812 180.394 199.204 180.132 199.543L179.22 200.888C178.981 201.043 178.78 201.249 178.63 201.491C178.48 201.733 178.385 202.005 178.352 202.287C178.341 202.398 178.366 202.509 178.425 202.604C178.484 202.698 178.573 202.77 178.678 202.808C178.782 202.845 178.895 202.846 178.999 202.811C179.104 202.775 179.193 202.705 179.253 202.613L179.926 201.615C180.168 201.497 180.438 201.445 180.707 201.463Z" fill="#231F20"/>
<path d="M205.64 249.665C205.708 249.676 205.778 249.676 205.846 249.665C207.745 248.928 252.621 231.562 262.733 225.369C262.859 225.29 262.948 225.166 262.983 225.022C263.017 224.877 262.994 224.726 262.917 224.599C262.879 224.535 262.829 224.48 262.77 224.436C262.71 224.393 262.643 224.361 262.571 224.344C262.499 224.327 262.425 224.324 262.352 224.336C262.279 224.348 262.209 224.375 262.147 224.414C252.121 230.553 205.911 248.439 205.445 248.613C205.305 248.666 205.193 248.773 205.132 248.909C205.071 249.045 205.066 249.2 205.119 249.34C205.164 249.439 205.238 249.523 205.33 249.581C205.423 249.639 205.531 249.668 205.64 249.665Z" fill="white"/>
<path d="M257.98 178.837C248.087 178.837 240.067 171.247 240.067 161.884C240.067 152.521 248.087 144.931 257.98 144.931C267.874 144.931 275.894 152.521 275.894 161.884C275.894 171.247 267.874 178.837 257.98 178.837Z" fill="#231F20"/>
<path d="M257.98 179.369C268.158 179.369 276.425 171.526 276.425 161.884C276.425 152.241 268.147 144.388 257.98 144.388C247.814 144.388 239.535 152.241 239.535 161.884C239.535 171.526 247.803 179.369 257.98 179.369ZM257.98 145.473C267.561 145.473 275.34 152.838 275.34 161.884C275.34 170.93 267.55 178.284 257.98 178.284C248.411 178.284 240.62 170.93 240.62 161.884C240.62 152.838 248.4 145.473 257.98 145.473Z" fill="#231F20"/>
<path d="M267.431 167.394L271.771 164.856V161.504L267.431 158.966C265.984 158.135 264.537 157.289 263.091 156.428V160.485C263.861 160.962 264.632 161.428 265.402 161.873C266.172 162.318 266.932 162.773 267.713 163.261L265.402 164.541L263.091 165.832V169.932L267.431 167.394Z" fill="white"/>
<path d="M261.865 171.006L256.754 151.569L254.085 152.773L259.217 172.177L261.865 171.006Z" fill="white"/>
<path d="M248.465 158.966L244.125 161.504V164.856L248.465 167.394L252.805 169.932V165.832L250.494 164.541L248.183 163.261C248.953 162.773 249.724 162.307 250.494 161.873C251.264 161.439 252.024 160.962 252.805 160.485V156.428L248.465 158.966Z" fill="white"/>
<path d="M295.12 209.056C295.264 209.064 295.405 209.015 295.513 208.92C295.621 208.824 295.686 208.69 295.695 208.546C295.704 208.402 295.655 208.261 295.559 208.153C295.464 208.045 295.329 207.98 295.185 207.971L269.145 204.815L265.011 183.978L298.375 181.158C298.455 181.153 298.532 181.13 298.602 181.09C298.671 181.051 298.731 180.996 298.776 180.93C298.825 180.866 298.858 180.792 298.873 180.713C298.888 180.634 298.885 180.552 298.863 180.475L285.149 129.431C285.111 129.287 285.018 129.164 284.89 129.089C284.762 129.013 284.609 128.992 284.465 129.03C284.321 129.067 284.198 129.16 284.123 129.288C284.048 129.416 284.026 129.569 284.064 129.713L297.615 180.139L264.339 182.894C264.262 182.902 264.188 182.925 264.121 182.963C264.054 183 263.995 183.05 263.948 183.111C263.903 183.172 263.87 183.243 263.854 183.317C263.837 183.392 263.836 183.469 263.85 183.544L268.19 205.357C268.214 205.468 268.271 205.57 268.355 205.648C268.438 205.725 268.544 205.775 268.657 205.791L295.12 208.991V209.056Z" fill="#231F20"/>
<path d="M151.726 61.7592H205.825V67.356H151.726V61.7592Z" fill="#E6E7E8"/>
<path d="M91.3353 61.7592H145.433V67.356H91.3353V61.7592Z" fill="#E6E7E8"/>
<path d="M151.726 71.3476H183.484V76.9444H151.726V71.3476Z" fill="#2E64EF"/>
<path d="M97.3788 71.3476H145.433V76.9444H97.3788V71.3476Z" fill="#E6E7E8"/>
<path d="M151.726 80.9468H191.752V86.5436H151.726V80.9468Z" fill="#E6E7E8"/>
<path d="M122.865 80.9468H145.433V86.5436H122.865V80.9468Z" fill="#E6E7E8"/>
<path d="M151.716 90.5351H175.065V96.132H151.716V90.5351Z" fill="#E6E7E8"/>
<path d="M101.23 90.5351H145.433V96.132H101.23V90.5351Z" fill="#2E64EF"/>
<path d="M151.726 100.134H159.159V105.731H151.726V100.134Z" fill="#2E64EF"/>
<path d="M115.737 100.134H145.433V105.731H115.737V100.134Z" fill="#E6E7E8"/>
<path d="M152.66 139.572H202.374V145.983H152.66V139.572Z" fill="#2E64EF"/>
<path d="M114.142 139.572H144.674V145.983H114.142V139.572Z" fill="#E6E7E8"/>
<path d="M152.67 150.549H193.032V156.96H152.67V150.549Z" fill="#E6E7E8"/>
<path d="M100.221 150.549H144.674V156.96H100.221V150.549Z" fill="#E6E7E8"/>
<path d="M152.67 161.537H172.851V167.947H152.67V161.537Z" fill="#E6E7E8"/>
<path d="M91.8127 161.537H144.674V167.947H91.8127V161.537Z" fill="#E6E7E8"/>
<path d="M152.67 172.524H160.233V178.935H152.67V172.524Z" fill="#E6E7E8"/>
<path d="M88.4926 172.524H144.674V178.935H88.4926V172.524Z" fill="#2E64EF"/>
<path d="M106.938 183.501H144.674V189.911H106.938V183.501Z" fill="#E6E7E8"/>
<path d="M125.545 125.667L129.625 124.04V121.871L125.545 120.244L121.466 118.617V121.198C122.204 121.513 122.931 121.806 123.636 122.088C124.341 122.37 125.09 122.663 125.806 122.977L123.636 123.802L121.466 124.626V127.251L125.545 125.667Z" fill="#E6E7E8"/>
<path d="M120.261 127.977L115.422 115.536L112.883 116.296L117.755 128.791L120.261 127.977Z" fill="#E6E7E8"/>
<path d="M107.61 120.276C106.254 120.819 104.887 121.361 103.531 121.903V124.073L107.61 125.7L111.69 127.327V124.669L109.52 123.845L107.35 123.021C108.088 122.706 108.815 122.413 109.52 122.131C110.225 121.849 110.974 121.556 111.69 121.242V118.649L107.61 120.276Z" fill="#E6E7E8"/>
<path d="M204.403 48.4179C204.405 48.1665 204.349 47.918 204.24 47.6912C204.146 47.4602 204.001 47.2528 203.817 47.0838C203.637 46.9169 203.427 46.7845 203.199 46.6933C202.954 46.593 202.693 46.5414 202.428 46.5415C202.179 46.5437 201.931 46.5954 201.701 46.6933C201.478 46.7871 201.272 46.9192 201.094 47.0838C200.92 47.2592 200.781 47.4651 200.682 47.6912C200.581 47.9203 200.53 48.1678 200.53 48.4179C200.53 48.6715 200.581 48.9225 200.682 49.1555C200.784 49.3702 200.923 49.5649 201.094 49.7303C201.457 50.0691 201.932 50.2622 202.428 50.2727C202.693 50.2727 202.954 50.2211 203.199 50.1208C203.429 50.0338 203.64 49.9009 203.817 49.7303C203.998 49.5712 204.142 49.3752 204.24 49.1555C204.349 48.9249 204.405 48.6728 204.403 48.4179ZM204.403 54.774C204.398 54.5256 204.344 54.2808 204.243 54.0536C204.142 53.8265 203.998 53.6215 203.817 53.4507C203.64 53.2767 203.43 53.1402 203.199 53.0494C202.954 52.9528 202.692 52.9049 202.428 52.9084C202.179 52.907 201.932 52.9549 201.701 53.0494C201.475 53.143 201.269 53.2792 201.094 53.4507C200.92 53.6221 200.781 53.8244 200.682 54.0473C200.582 54.2784 200.53 54.5276 200.53 54.7794C200.53 55.0313 200.582 55.2804 200.682 55.5116C200.781 55.7312 200.921 55.93 201.094 56.0973C201.272 56.2618 201.478 56.394 201.701 56.4878C201.932 56.5823 202.179 56.6302 202.428 56.6288C202.692 56.6322 202.954 56.5843 203.199 56.4878C203.427 56.3966 203.637 56.2642 203.817 56.0973C204 55.9362 204.145 55.736 204.24 55.5116C204.35 55.2814 204.406 55.0291 204.403 54.774Z" fill="#E6E7E8"/>
<path d="M141.05 230.922C140.621 230.944 140.197 230.822 139.846 230.575C139.542 230.347 139.401 229.87 139.401 229.133V225.77C139.402 225.213 139.329 224.659 139.184 224.121C139.049 223.621 138.821 223.15 138.511 222.733C138.195 222.333 137.795 222.007 137.339 221.779C136.797 221.526 136.202 221.403 135.603 221.421H133.162V224.913H134.019C134.215 224.894 134.412 224.928 134.59 225.012C134.768 225.096 134.919 225.227 135.028 225.391C135.216 225.721 135.31 226.096 135.3 226.475V229.903C135.287 230.337 135.365 230.769 135.527 231.172C135.658 231.483 135.842 231.769 136.07 232.018C136.27 232.232 136.509 232.405 136.775 232.528C136.988 232.64 137.22 232.71 137.459 232.734C137.223 232.777 136.993 232.85 136.775 232.951C136.51 233.065 136.27 233.231 136.07 233.439C135.548 234.017 135.271 234.775 135.3 235.554V238.992C135.313 239.372 135.219 239.748 135.028 240.077C134.921 240.242 134.77 240.375 134.592 240.461C134.414 240.547 134.216 240.583 134.019 240.565H133.162V244.057H135.603C136.202 244.075 136.797 243.953 137.339 243.7C137.795 243.471 138.195 243.145 138.511 242.745C138.818 242.327 139.046 241.857 139.184 241.357C139.328 240.815 139.401 240.257 139.401 239.697V236.335C139.363 236.078 139.384 235.816 139.461 235.568C139.538 235.321 139.669 235.093 139.846 234.903C140.197 234.656 140.621 234.534 141.05 234.556V230.922Z" fill="#E6E7E8"/>
<path d="M103.574 234.534C104.006 234.512 104.434 234.634 104.789 234.881C104.964 235.073 105.094 235.3 105.171 235.548C105.248 235.795 105.269 236.056 105.234 236.313V239.675C105.234 240.236 105.307 240.794 105.451 241.335C105.584 241.837 105.812 242.308 106.124 242.723C106.434 243.129 106.836 243.456 107.296 243.678C107.839 243.931 108.433 244.053 109.032 244.036H111.473V240.511H110.605C110.41 240.527 110.214 240.49 110.039 240.404C109.863 240.318 109.714 240.186 109.607 240.023C109.416 239.694 109.322 239.318 109.335 238.938V235.5C109.346 235.069 109.269 234.641 109.108 234.241C108.975 233.925 108.788 233.635 108.554 233.384C108.357 233.178 108.121 233.012 107.86 232.896C107.638 232.797 107.405 232.724 107.165 232.679C107.408 232.654 107.643 232.584 107.86 232.473C108.123 232.351 108.359 232.178 108.554 231.964C108.79 231.719 108.978 231.432 109.108 231.118C109.27 230.715 109.348 230.283 109.335 229.848V226.41C109.325 226.031 109.419 225.656 109.607 225.325C109.715 225.164 109.865 225.034 110.04 224.95C110.216 224.866 110.411 224.831 110.605 224.848H111.473V221.421H109.032C108.433 221.403 107.839 221.526 107.296 221.779C106.836 222 106.434 222.327 106.124 222.733C105.81 223.147 105.582 223.619 105.451 224.121C105.306 224.659 105.233 225.213 105.234 225.77V229.133C105.27 229.391 105.249 229.654 105.172 229.903C105.096 230.153 104.965 230.382 104.789 230.575C104.434 230.822 104.006 230.944 103.574 230.922V234.534Z" fill="#E6E7E8"/>
</svg>
